<?xml version="1.0" encoding="UTF-8" standalone="no"?>
<svg width="19px" height="29px" viewBox="0 0 19 29" version="1.1" xmlns="http://www.w3.org/2000/svg" xmlns:xlink="http://www.w3.org/1999/xlink">
    <!-- Generator: sketchtool 40.3 (33839) - http://www.bohemiancoding.com/sketch -->
    <title>3BCDF3F3-C7FE-4342-8D4A-0418C1A02248</title>
    <desc>Created with sketchtool.</desc>
    <defs></defs>
    <g id="Symbols" stroke="none" stroke-width="1" fill="none" fill-rule="evenodd">
        <g id="NAV" transform="translate(-366.000000, -1251.000000)" fill="#BCC2C6">
            <g id="icon-menu-alura" transform="translate(366.000000, 1251.000000)">
                <g id="Layer_1">
                    <g id="Group">
                        <path d="M16.3653333,2.02082051 C14.9130513,0.798974359 12.6286667,0.188051282 9.51266667,0.188051282 C7.91910256,0.188051282 6.55548718,0.356615385 5.42230769,0.692769231 C4.28864103,1.02989744 3.35082051,1.48979487 2.60689744,2.07392308 C1.86346154,2.65853846 1.32317949,3.34058974 0.986538462,4.11910256 C0.649897436,4.89858974 0.481820513,5.73117949 0.481820513,6.61589744 L0.481820513,7.89084615 L4.99748718,7.89084615 C4.99748718,6.86435897 5.30684615,5.9874359 5.92702564,5.26153846 C6.54623077,4.53612821 7.74176923,4.17269231 9.51266667,4.17269231 C10.3973846,4.17269231 11.1330256,4.27061538 11.7171538,4.465 C12.3017692,4.65987179 12.7704359,4.91661538 13.1251026,5.23523077 C13.4787949,5.55384615 13.7267692,5.89925641 13.8690256,6.27097436 C14.0103077,6.64269231 14.0814359,7.00661538 14.0814359,7.35982051 L14.0814359,8.36925641 C14.0814359,8.79407692 14.0015385,9.16628205 13.8422308,9.48489744 C13.6829231,9.80351282 13.4968205,10.0875385 13.2844103,10.3350256 C13.072,10.583 12.8503333,10.7691026 12.6203846,10.8928462 C12.3894615,11.0175641 12.2038462,11.1145128 12.0625641,11.1851538 C11.9203077,11.2207179 11.5661282,11.3444615 11.0000256,11.5568718 C10.4329487,11.7692821 9.76892308,12.0084872 9.00794872,12.274 C8.246,12.5395128 7.45823077,12.8142821 6.64366667,13.0973333 C5.82861538,13.381359 5.10320513,13.628359 4.46548718,13.8407692 C3.19053846,14.301641 2.20789744,15.080641 1.5175641,16.1782564 C0.827717949,17.2758718 0.482307692,18.4982051 0.482307692,19.8433077 L0.482307692,22.3401026 C0.482307692,22.9773333 0.596794872,23.6774103 0.827717949,24.4383846 C1.05766667,25.2003333 1.50879487,25.8994359 2.18207692,26.5366667 C2.85438462,27.1743846 3.77564103,27.7054103 4.94438462,28.1302308 C6.11312821,28.5550513 7.63507692,28.7679487 9.51266667,28.7679487 C11.3892821,28.7679487 12.9126923,28.5550513 14.0809487,28.1302308 C15.2496923,27.7049231 16.1699744,27.1738974 16.8432564,26.5366667 C17.5155641,25.8994359 17.9671795,25.2003333 18.1976154,24.4383846 C18.4275641,23.6774103 18.5430256,22.9773333 18.5430256,22.3401026 L18.5430256,20.7991538 L18.5430256,9.16579487 L18.5430256,6.61589744 C18.5435128,4.77484615 17.8171282,3.24266667 16.3653333,2.02082051 L16.3653333,2.02082051 Z M14.0814359,20.799641 C14.0814359,22.0745897 13.7628205,23.0572308 13.1251026,23.7480513 C12.4873846,24.4388718 11.2835641,24.7837949 9.51266667,24.7837949 C7.77733333,24.7837949 6.59105128,24.4568974 5.95333333,23.8011538 C5.31561538,23.1463846 4.99748718,22.1462051 4.99748718,20.799641 C4.99748718,20.1273333 5.13,19.5695128 5.39551282,19.1261795 C5.66102564,18.6838205 5.95333333,18.3208718 6.27194872,18.0373333 C6.66120513,17.7187179 7.06897436,17.4712308 7.49379487,17.2938974 C8.05989744,17.081 8.66253846,16.8685897 9.30025641,16.6561795 C9.83128205,16.4793333 10.406641,16.2761795 11.0263333,16.0452564 C11.6455385,15.8153077 12.2218718,15.6116667 12.7528974,15.4343333 C13.0003846,15.3636923 13.2658974,15.2399487 13.5499231,15.0626154 C13.8329744,14.8857692 14.0098205,14.6202564 14.0809487,14.2655897 L14.0809487,20.799641 L14.0814359,20.799641 Z" id="Shape"></path>
                    </g>
                </g>
            </g>
        </g>
    </g>
</svg>