<?xml version="1.0" encoding="iso-8859-1"?>
<!-- Generator: Adobe Illustrator 16.0.0, SVG Export Plug-In . SVG Version: 6.00 Build 0)  -->
<!DOCTYPE svg PUBLIC "-//W3C//DTD SVG 1.1//EN" "http://www.w3.org/Graphics/SVG/1.1/DTD/svg11.dtd">
<svg version="1.1" id="Capa_1" xmlns="http://www.w3.org/2000/svg" xmlns:xlink="http://www.w3.org/1999/xlink" x="0px" y="0px"
	 width="792px" height="792px" viewBox="0 0 792 792" style="enable-background:new 0 0 792 792;" xml:space="preserve">
<g>
	<g id="Shape_360">
		<g>
			<path d="M633.6,0H158.4C143.819,0,132,11.833,132,26.4v739.213C132,780.167,143.819,792,158.4,792h475.2
				c14.581,0,26.4-11.833,26.4-26.373V26.4C660,11.833,648.181,0,633.6,0z M633.6,752.387c0,7.297-5.916,13.227-13.199,13.227H171.6
				c-7.284,0-13.2-5.93-13.2-13.227V39.6c0-7.27,5.917-13.2,13.2-13.2h448.8c7.283,0,13.199,5.93,13.199,13.2V752.387z M330,594
				h-52.8v-52.8c0-7.271-5.917-13.2-13.2-13.2s-13.2,5.93-13.2,13.2V594H198c-7.297,0-13.2,5.93-13.2,13.2
				c0,7.297,5.917,13.2,13.2,13.2h52.8v52.8c0,7.27,5.917,13.2,13.2,13.2s13.2-5.931,13.2-13.2v-52.8H330
				c7.297,0,13.2-5.903,13.2-13.2C343.2,599.93,337.297,594,330,594z M211.2,475.187h369.6c14.581,0,26.4-11.833,26.4-26.4v-369.6
				c0-14.567-11.819-26.373-26.4-26.373H211.2c-14.581-0.014-26.4,11.806-26.4,26.373V448.8
				C184.8,463.367,196.619,475.187,211.2,475.187z M211.2,92.387c0-7.271,5.916-13.2,13.2-13.2h343.2c7.298,0,13.2,5.93,13.2,13.2
				v343.2c0,7.297-5.916,13.199-13.2,13.199H224.4c-7.297,0-13.2-5.902-13.2-13.199V92.387z M448.8,620.4
				c-21.864,0-39.6,17.708-39.6,39.6c0,21.864,17.735,39.587,39.6,39.587c21.878,0,39.601-17.709,39.601-39.587
				S470.678,620.4,448.8,620.4z M448.8,673.214c-7.283,0-13.2-5.903-13.2-13.2s5.917-13.2,13.2-13.2c7.298,0,13.2,5.903,13.2,13.2
				S456.098,673.214,448.8,673.214z M567.6,646.813c-21.864,0-39.6,17.735-39.6,39.601c0,21.837,17.735,39.6,39.6,39.6
				c21.879,0,39.601-17.763,39.601-39.6C607.2,664.549,589.479,646.813,567.6,646.813z M567.6,699.587
				c-7.283,0-13.199-5.876-13.199-13.173c0-7.325,5.916-13.2,13.199-13.2c7.298,0,13.2,5.875,13.2,13.2
				C580.8,693.711,574.884,699.587,567.6,699.587z M567.6,541.2c-21.864,0-39.6,17.735-39.6,39.572
				c0,21.893,17.735,39.628,39.6,39.628c21.879,0,39.601-17.736,39.601-39.628C607.2,558.936,589.479,541.2,567.6,541.2z M567.6,594
				c-7.283,0-13.199-5.902-13.199-13.228c0-7.27,5.916-13.173,13.199-13.173c7.298,0,13.2,5.903,13.2,13.173
				C580.8,588.098,574.884,594,567.6,594z M448.8,514.8c-21.864,0-39.6,17.735-39.6,39.601c0,21.864,17.735,39.6,39.6,39.6
				c21.878,0,39.601-17.735,39.601-39.6C488.4,532.535,470.678,514.8,448.8,514.8z M448.8,567.6c-7.283,0-13.2-5.902-13.2-13.199
				c0-7.298,5.917-13.2,13.2-13.2c7.298,0,13.2,5.902,13.2,13.2C462,561.697,456.098,567.6,448.8,567.6z"/>
		</g>
	</g>
</g>
<g>
</g>
<g>
</g>
<g>
</g>
<g>
</g>
<g>
</g>
<g>
</g>
<g>
</g>
<g>
</g>
<g>
</g>
<g>
</g>
<g>
</g>
<g>
</g>
<g>
</g>
<g>
</g>
<g>
</g>
</svg>
