<?xml version="1.0" encoding="utf-8"?>
<!-- Generator: Adobe Illustrator 19.2.1, SVG Export Plug-In . SVG Version: 6.00 Build 0)  -->
<svg version="1.1" id="layer" xmlns="http://www.w3.org/2000/svg" xmlns:xlink="http://www.w3.org/1999/xlink" x="0px" y="0px"
	 viewBox="0 0 652 652" style="enable-background:new 0 0 652 652;" xml:space="preserve">
<style type="text/css">
	.st0{fill:#A435F0;}
</style>
<path class="st0" d="M114.4,262l-46.6-26.9L21.2,262v-26.9l46.6-26.9l46.6,26.9L114.4,262L114.4,262z"/>
<path d="M21.2,284.6h24.4v59.3c0,15.3,11.4,22.8,22.2,22.8c10.8,0,22.2-7.7,22.2-23v-59.1h24.4v60.7c0,14.1-4.4,25-13.3,32.5
	c-8.9,7.5-20,11.1-33.5,11.1c-13.5,0-24.6-3.6-33.3-11.1c-8.7-7.5-13.1-18-13.1-31.9C21.2,346,21.2,284.6,21.2,284.6z M325.5,358.4
	c-7.4,6.6-15.8,9.8-25.4,9.8c-17.5,0-29.3-10-30.6-25.4h78.9c0,0,0.5-5,0.5-9.7c0-14.5-4.6-26.6-14.1-36.5
	c-9.3-9.9-21.4-14.7-36.1-14.7c-15.5,0-28.2,4.8-38.3,14.7c-9.9,9.9-14.9,22.8-14.9,38.9v0.8c0,15.9,5,28.7,14.9,38.1
	c9.9,9.5,23,14.3,38.9,14.3c18.5,0,33.3-7.3,44.3-19.9C343.6,368.8,325.5,358.4,325.5,358.4z M279.1,308.8
	c5.4-4.2,12.1-6.5,19.6-6.5c7.1,0,12.9,2.2,18,6.7c4.8,4,7.4,9,7.6,14.7h-54.1C270.9,317.9,273.9,312.9,279.1,308.8L279.1,308.8z
	 M571.3,402.4c-9.9,23.4-20.3,31.3-36.2,31.3h-11v-21.6h8.9c5.5,0,10.5-2.1,15.4-13.2l4.8-11.2l-41.8-103.1h24.8l29.7,74.2
	l30.5-74.2h24.8L571.3,402.4L571.3,402.4z M209.5,245.7v48.1c-8-7.2-20.4-11.4-32.5-11.4c-14.3,0-26.4,5-36.3,15.3
	c-9.7,10.1-14.5,22.6-14.5,37.7c0,15.1,4.8,27.6,14.5,37.9c9.9,10.1,22,15.1,36.3,15.1c16.5,0,27-6.5,32.5-11.6v9.4h24.2V245.7
	L209.5,245.7L209.5,245.7z M202.2,357.7c-5.9,5.9-13.3,8.9-22,8.9s-15.7-3-21.6-8.9c-5.6-5.9-8.5-13.3-8.5-22.2
	c0-8.9,2.8-16.3,8.5-22.2c5.9-5.9,12.9-8.9,21.6-8.9s16.1,3,22,8.9c6.1,5.9,9.1,13.3,9.1,22.2C211.3,344.4,208.3,351.8,202.2,357.7z
	 M473.8,282.6c-18.4,0-27.9,7.6-34.5,15c-2.6-5-10-15-27.2-15c-14.6,0-23.2,7.4-27.4,12.6v-10.6h-24v101.7h24v-58.5
	c0-13.7,8.5-23.6,19.8-23.6c11.5,0,18.2,8.7,18.2,22.6v59.5h24v-58.5c0-13.9,8.3-23.6,20.2-23.6c11.5,0,18.2,8.7,18.2,22.6v59.5
	h24.2v-62.9C509.1,296.9,494.9,282.6,473.8,282.6L473.8,282.6z"/>
</svg>
